<svg width="20" height="20" viewBox="0 0 20 20" fill="none" xmlns="http://www.w3.org/2000/svg">
<path d="M2 19.5C1.45 19.5 0.979001 19.304 0.587001 18.912C0.195002 18.52 -0.000664969 18.0493 1.69779e-06 17.5V6.5C1.69779e-06 5.95 0.196002 5.479 0.588002 5.087C0.980002 4.695 1.45067 4.49933 2 4.5H6V2.5C6 1.95 6.196 1.479 6.588 1.087C6.98 0.695002 7.45067 0.499335 8 0.500002H12C12.55 0.500002 13.021 0.696002 13.413 1.088C13.805 1.48 14.0007 1.95067 14 2.5V4.5H18C18.55 4.5 19.021 4.696 19.413 5.088C19.805 5.48 20.0007 5.95067 20 6.5V17.5C20 18.05 19.804 18.521 19.412 18.913C19.02 19.305 18.5493 19.5007 18 19.5H2ZM8 4.5H12V2.5H8V4.5Z" fill="white"/>
</svg>
