<svg width="20" height="20" viewBox="0 0 20 20" fill="none" xmlns="http://www.w3.org/2000/svg">
<path d="M0 9.64815H3.57143V19.5H0V9.64815ZM15 19.5H5V9.08307L7.17286 5.87207L7.77643 1.70826C7.82649 1.3735 7.99671 1.06751 8.2562 0.845819C8.51569 0.624131 8.84725 0.501436 9.19071 0.5H9.28571C9.85386 0.500559 10.3986 0.723158 10.8003 1.11895C11.2021 1.51474 11.428 2.05138 11.4286 2.61111V6.83333H17.1429C17.9003 6.83426 18.6265 7.13112 19.1621 7.6588C19.6977 8.18648 19.9991 8.9019 20 9.64815V14.5741C19.9985 15.8801 19.4712 17.1321 18.5339 18.0556C17.5965 18.9791 16.3256 19.4985 15 19.5Z" fill="white"/>
</svg>
