<svg width="45" height="40" viewBox="0 0 45 40" fill="none" xmlns="http://www.w3.org/2000/svg">
<path id="Vector" d="M25.0493 1.06589C25.6521 0.3834 26.4695 0 27.3218 0C28.1742 0 28.9916 0.3834 29.5944 1.06589L44.0589 17.4481C44.6615 18.1308 45 19.0566 45 20.022C45 20.9873 44.6615 21.9131 44.0589 22.5958L29.5944 38.9781C28.9881 39.6412 28.1762 40.0082 27.3334 39.9999C26.4906 39.9916 25.6844 39.6087 25.0885 38.9337C24.4925 38.2587 24.1545 37.3457 24.1471 36.3911C24.1398 35.4366 24.4638 34.517 25.0493 33.8304L33.7505 23.6625H3.21433C2.36184 23.6625 1.54426 23.2789 0.941457 22.5962C0.338652 21.9135 0 20.9875 0 20.022C0 19.0565 0.338652 18.1305 0.941457 17.4478C1.54426 16.765 2.36184 16.3815 3.21433 16.3815H33.7505L25.0493 6.21356C24.4467 5.53086 24.1082 4.60505 24.1082 3.63972C24.1082 2.67439 24.4467 1.74858 25.0493 1.06589Z" fill="black"/>
</svg>
